<mxfile host="app.diagrams.net" agent="Mozilla/5.0 (Windows NT 10.0; Win64; x64) AppleWebKit/537.36 (KHTML, like Gecko) Chrome/135.0.0.0 Safari/537.36" version="26.2.14">
  <diagram name="Página-1" id="acXoMXR9jq2LhBKLXccx">
    <mxGraphModel dx="660" dy="763" grid="1" gridSize="10" guides="1" tooltips="1" connect="1" arrows="1" fold="1" page="1" pageScale="1" pageWidth="827" pageHeight="1169" math="0" shadow="0">
      <root>
        <mxCell id="0" />
        <mxCell id="1" parent="0" />
        <mxCell id="prt_XcDELn3MYNEr-027-46" value="" style="rounded=1;whiteSpace=wrap;fillColor=#f0f0f0;strokeColor=#333333;" vertex="1" parent="1">
          <mxGeometry x="1330" y="210" width="800" height="600" as="geometry" />
        </mxCell>
        <mxCell id="prt_XcDELn3MYNEr-027-89" style="edgeStyle=orthogonalEdgeStyle;rounded=0;orthogonalLoop=1;jettySize=auto;html=1;exitX=0.25;exitY=1;exitDx=0;exitDy=0;entryX=1;entryY=0.5;entryDx=0;entryDy=0;" edge="1" parent="prt_XcDELn3MYNEr-027-46" source="prt_XcDELn3MYNEr-027-47" target="prt_XcDELn3MYNEr-027-50">
          <mxGeometry relative="1" as="geometry" />
        </mxCell>
        <mxCell id="prt_XcDELn3MYNEr-027-47" value="CPU" style="rounded=1;whiteSpace=wrap;" vertex="1" parent="prt_XcDELn3MYNEr-027-46">
          <mxGeometry x="340" y="75" width="140" height="90" as="geometry" />
        </mxCell>
        <mxCell id="prt_XcDELn3MYNEr-027-48" value="Interfaz I²S" style="rounded=1;whiteSpace=wrap;" vertex="1" parent="prt_XcDELn3MYNEr-027-46">
          <mxGeometry x="50" y="100" width="100" height="40" as="geometry" />
        </mxCell>
        <mxCell id="prt_XcDELn3MYNEr-027-49" value="Interfaz de pin de entrada" style="rounded=1;whiteSpace=wrap;" vertex="1" parent="prt_XcDELn3MYNEr-027-46">
          <mxGeometry x="50" y="200" width="140" height="40" as="geometry" />
        </mxCell>
        <mxCell id="prt_XcDELn3MYNEr-027-50" value="Interfaz de pin de salida" style="rounded=1;whiteSpace=wrap;" vertex="1" parent="prt_XcDELn3MYNEr-027-46">
          <mxGeometry x="50" y="270" width="140" height="40" as="geometry" />
        </mxCell>
        <mxCell id="prt_XcDELn3MYNEr-027-51" value="Interfaz SPI" style="rounded=1;whiteSpace=wrap;" vertex="1" parent="prt_XcDELn3MYNEr-027-46">
          <mxGeometry x="50" y="380" width="100" height="40" as="geometry" />
        </mxCell>
        <mxCell id="prt_XcDELn3MYNEr-027-52" value="DMA MUX" style="rounded=1;whiteSpace=wrap;" vertex="1" parent="prt_XcDELn3MYNEr-027-46">
          <mxGeometry x="200" y="380" width="80" height="40" as="geometry" />
        </mxCell>
        <mxCell id="prt_XcDELn3MYNEr-027-53" value="Controlador DMA" style="rounded=1;whiteSpace=wrap;" vertex="1" parent="prt_XcDELn3MYNEr-027-46">
          <mxGeometry x="190" y="480" width="100" height="40" as="geometry" />
        </mxCell>
        <mxCell id="prt_XcDELn3MYNEr-027-54" value="Buffer en memoria RAM" style="rounded=1;whiteSpace=wrap;" vertex="1" parent="prt_XcDELn3MYNEr-027-46">
          <mxGeometry x="450" y="460" width="120" height="60" as="geometry" />
        </mxCell>
        <mxCell id="prt_XcDELn3MYNEr-027-55" value="Preprocesamiento de\nsegmentos de audio" style="rounded=1;whiteSpace=wrap;" vertex="1" parent="prt_XcDELn3MYNEr-027-46">
          <mxGeometry x="410" y="350" width="120" height="60" as="geometry" />
        </mxCell>
        <mxCell id="prt_XcDELn3MYNEr-027-56" value="Matriz de espectrograma\nlogarítmico de Mel\n(en RAM)" style="rounded=1;whiteSpace=wrap;" vertex="1" parent="prt_XcDELn3MYNEr-027-46">
          <mxGeometry x="630" y="80" width="160" height="90" as="geometry" />
        </mxCell>
        <mxCell id="prt_XcDELn3MYNEr-027-57" value="Matrices de datos de la red\nneuronal embebida\n(RAM + FLASH)" style="rounded=1;whiteSpace=wrap;" vertex="1" parent="prt_XcDELn3MYNEr-027-46">
          <mxGeometry x="640" y="240" width="140" height="100" as="geometry" />
        </mxCell>
        <mxCell id="prt_XcDELn3MYNEr-027-58" style="edgeStyle=orthogonalEdgeStyle;rounded=0;" edge="1" parent="prt_XcDELn3MYNEr-027-46" source="prt_XcDELn3MYNEr-027-51" target="prt_XcDELn3MYNEr-027-52">
          <mxGeometry relative="1" as="geometry" />
        </mxCell>
        <mxCell id="prt_XcDELn3MYNEr-027-59" style="edgeStyle=orthogonalEdgeStyle;rounded=0;" edge="1" parent="prt_XcDELn3MYNEr-027-46" source="prt_XcDELn3MYNEr-027-52" target="prt_XcDELn3MYNEr-027-53">
          <mxGeometry relative="1" as="geometry" />
        </mxCell>
        <mxCell id="prt_XcDELn3MYNEr-027-60" style="edgeStyle=orthogonalEdgeStyle;rounded=0;" edge="1" parent="prt_XcDELn3MYNEr-027-46" source="prt_XcDELn3MYNEr-027-53" target="prt_XcDELn3MYNEr-027-54">
          <mxGeometry relative="1" as="geometry">
            <Array as="points">
              <mxPoint x="360" y="500" />
              <mxPoint x="360" y="490" />
            </Array>
          </mxGeometry>
        </mxCell>
        <mxCell id="prt_XcDELn3MYNEr-027-61" style="edgeStyle=orthogonalEdgeStyle;rounded=0;" edge="1" parent="prt_XcDELn3MYNEr-027-46" source="prt_XcDELn3MYNEr-027-54" target="prt_XcDELn3MYNEr-027-55">
          <mxGeometry relative="1" as="geometry" />
        </mxCell>
        <mxCell id="prt_XcDELn3MYNEr-027-62" style="edgeStyle=orthogonalEdgeStyle;rounded=0;entryX=0.75;entryY=1;entryDx=0;entryDy=0;" edge="1" parent="prt_XcDELn3MYNEr-027-46" source="prt_XcDELn3MYNEr-027-55" target="prt_XcDELn3MYNEr-027-47">
          <mxGeometry relative="1" as="geometry">
            <Array as="points">
              <mxPoint x="470" y="290" />
              <mxPoint x="445" y="290" />
            </Array>
          </mxGeometry>
        </mxCell>
        <mxCell id="prt_XcDELn3MYNEr-027-63" style="edgeStyle=orthogonalEdgeStyle;rounded=0;" edge="1" parent="prt_XcDELn3MYNEr-027-46" source="prt_XcDELn3MYNEr-027-47" target="prt_XcDELn3MYNEr-027-56">
          <mxGeometry relative="1" as="geometry" />
        </mxCell>
        <mxCell id="prt_XcDELn3MYNEr-027-64" style="edgeStyle=orthogonalEdgeStyle;rounded=0;entryX=0.5;entryY=0;entryDx=0;entryDy=0;exitX=1;exitY=1;exitDx=0;exitDy=0;" edge="1" parent="prt_XcDELn3MYNEr-027-46" source="prt_XcDELn3MYNEr-027-47" target="prt_XcDELn3MYNEr-027-57">
          <mxGeometry relative="1" as="geometry">
            <mxPoint x="490" y="190" as="sourcePoint" />
            <mxPoint x="660" y="410" as="targetPoint" />
            <Array as="points">
              <mxPoint x="490" y="215" />
              <mxPoint x="710" y="215" />
            </Array>
          </mxGeometry>
        </mxCell>
        <mxCell id="prt_XcDELn3MYNEr-027-71" style="edgeStyle=orthogonalEdgeStyle;rounded=0;entryX=0.363;entryY=0.97;entryDx=0;entryDy=0;entryPerimeter=0;" edge="1" parent="prt_XcDELn3MYNEr-027-46">
          <mxGeometry relative="1" as="geometry">
            <mxPoint x="160" y="222.72702702702696" as="sourcePoint" />
            <mxPoint x="360.8199999999997" y="170.00000000000006" as="targetPoint" />
            <Array as="points">
              <mxPoint x="361" y="222.7" />
            </Array>
          </mxGeometry>
        </mxCell>
        <mxCell id="prt_XcDELn3MYNEr-027-95" value="" style="endArrow=classic;startArrow=classic;html=1;rounded=0;exitX=1;exitY=0.5;exitDx=0;exitDy=0;entryX=0;entryY=0.5;entryDx=0;entryDy=0;" edge="1" parent="prt_XcDELn3MYNEr-027-46" source="prt_XcDELn3MYNEr-027-48" target="prt_XcDELn3MYNEr-027-47">
          <mxGeometry width="50" height="50" relative="1" as="geometry">
            <mxPoint x="330" y="300" as="sourcePoint" />
            <mxPoint x="380" y="250" as="targetPoint" />
          </mxGeometry>
        </mxCell>
        <mxCell id="prt_XcDELn3MYNEr-027-66" value="RTC ds3231" style="rounded=1;whiteSpace=wrap;fillColor=#e8f5e9;" vertex="1" parent="1">
          <mxGeometry x="1160" y="200" width="140" height="80" as="geometry" />
        </mxCell>
        <mxCell id="prt_XcDELn3MYNEr-027-67" value="Botón de usuario\n(+Vcc)" style="rounded=1;whiteSpace=wrap;fillColor=#fff3e0;" vertex="1" parent="1">
          <mxGeometry x="1160" y="400" width="120" height="60" as="geometry" />
        </mxCell>
        <mxCell id="prt_XcDELn3MYNEr-027-68" value="Led de usuario" style="rounded=1;whiteSpace=wrap;fillColor=#fff3e0;" vertex="1" parent="1">
          <mxGeometry x="1191" y="530" width="100" height="50" as="geometry" />
        </mxCell>
        <mxCell id="prt_XcDELn3MYNEr-027-69" value="Módulo de Tarjeta MicroSD" style="rounded=1;whiteSpace=wrap;fillColor=#e3f2fd;" vertex="1" parent="1">
          <mxGeometry x="1150" y="610" width="120" height="80" as="geometry" />
        </mxCell>
        <mxCell id="prt_XcDELn3MYNEr-027-70" style="edgeStyle=orthogonalEdgeStyle;rounded=0;" edge="1" parent="1" source="prt_XcDELn3MYNEr-027-48" target="prt_XcDELn3MYNEr-027-66">
          <mxGeometry relative="1" as="geometry" />
        </mxCell>
        <mxCell id="prt_XcDELn3MYNEr-027-74" style="edgeStyle=orthogonalEdgeStyle;rounded=0;" edge="1" parent="1" source="prt_XcDELn3MYNEr-027-67" target="prt_XcDELn3MYNEr-027-49">
          <mxGeometry relative="1" as="geometry" />
        </mxCell>
        <mxCell id="prt_XcDELn3MYNEr-027-76" value="&lt;span style=&quot;color: rgb(255, 255, 255); font-family: Helvetica; font-size: 12px; font-style: normal; font-variant-ligatures: normal; font-variant-caps: normal; font-weight: 400; letter-spacing: normal; orphans: 2; text-align: center; text-indent: 0px; text-transform: none; widows: 2; word-spacing: 0px; -webkit-text-stroke-width: 0px; white-space: normal; background-color: rgb(27, 29, 30); text-decoration-thickness: initial; text-decoration-style: initial; text-decoration-color: initial; float: none; display: inline !important;&quot;&gt;Microcontrolador STM32L432KC&lt;/span&gt;" style="text;whiteSpace=wrap;html=1;" vertex="1" parent="1">
          <mxGeometry x="1640" y="180" width="180" height="20" as="geometry" />
        </mxCell>
        <mxCell id="prt_XcDELn3MYNEr-027-92" style="edgeStyle=orthogonalEdgeStyle;rounded=0;orthogonalLoop=1;jettySize=auto;html=1;exitX=0;exitY=0.5;exitDx=0;exitDy=0;entryX=0.75;entryY=0;entryDx=0;entryDy=0;" edge="1" parent="1" source="prt_XcDELn3MYNEr-027-50" target="prt_XcDELn3MYNEr-027-68">
          <mxGeometry relative="1" as="geometry" />
        </mxCell>
        <mxCell id="prt_XcDELn3MYNEr-027-96" value="" style="endArrow=classic;startArrow=classic;html=1;rounded=0;exitX=1;exitY=0.5;exitDx=0;exitDy=0;entryX=0;entryY=0.5;entryDx=0;entryDy=0;" edge="1" parent="1" source="prt_XcDELn3MYNEr-027-69" target="prt_XcDELn3MYNEr-027-51">
          <mxGeometry width="50" height="50" relative="1" as="geometry">
            <mxPoint x="1500" y="680" as="sourcePoint" />
            <mxPoint x="1550" y="630" as="targetPoint" />
          </mxGeometry>
        </mxCell>
      </root>
    </mxGraphModel>
  </diagram>
</mxfile>
